<svg xmlns="http://www.w3.org/2000/svg" width="384" height="96" viewBox="0 0 384 96" shape-rendering="crispEdges">
  <defs>
    <g id="arms-a">
      <rect x="24" y="78" width="48" height="5" fill="#07111f"/>
      <rect x="33" y="60" width="12" height="20" fill="#172033"/><rect x="54" y="60" width="12" height="20" fill="#172033"/>
      <rect x="30" y="77" width="19" height="7" fill="#0b0f19"/><rect x="51" y="77" width="20" height="7" fill="#0b0f19"/>
      <rect x="28" y="34" width="42" height="32" fill="#7c2d12"/><rect x="39" y="34" width="31" height="32" fill="#f97316"/>
      <rect x="23" y="43" width="16" height="11" fill="#f8c995"/><rect x="68" y="42" width="11" height="26" fill="#f8c995"/>
      <rect x="38" y="23" width="29" height="22" fill="#f8c995"/><rect x="34" y="16" width="38" height="12" fill="#111827"/><rect x="61" y="13" width="12" height="7" fill="#ff2e88"/>
      <rect x="44" y="33" width="5" height="4" fill="#00f5ff"/><rect x="58" y="33" width="5" height="4" fill="#00f5ff"/>
      <rect x="14" y="62" width="42" height="21" fill="#1e293b"/><rect x="19" y="68" width="31" height="4" fill="#64748b"/>
      <rect x="18" y="49" width="63" height="8" fill="#00f5ff"/><rect x="37" y="43" width="26" height="6" fill="#faff00"/><rect x="62" y="46" width="14" height="6" fill="#ff2e88"/>
    </g>
    <g id="arms-b">
      <rect x="24" y="78" width="48" height="5" fill="#07111f"/>
      <rect x="33" y="60" width="12" height="20" fill="#172033"/><rect x="54" y="60" width="12" height="20" fill="#172033"/>
      <rect x="30" y="77" width="19" height="7" fill="#0b0f19"/><rect x="51" y="77" width="20" height="7" fill="#0b0f19"/>
      <rect x="28" y="34" width="42" height="32" fill="#7c2d12"/><rect x="39" y="34" width="31" height="32" fill="#f97316"/>
      <rect x="22" y="47" width="18" height="10" fill="#f8c995"/><rect x="66" y="43" width="13" height="25" fill="#f8c995"/>
      <rect x="38" y="24" width="29" height="22" fill="#f8c995"/><rect x="34" y="17" width="38" height="12" fill="#111827"/><rect x="61" y="14" width="12" height="7" fill="#ff2e88"/>
      <rect x="44" y="34" width="5" height="4" fill="#00f5ff"/><rect x="58" y="34" width="5" height="4" fill="#00f5ff"/>
      <rect x="14" y="62" width="42" height="21" fill="#1e293b"/><rect x="19" y="68" width="31" height="4" fill="#64748b"/>
      <rect x="17" y="52" width="63" height="8" fill="#00f5ff"/><rect x="35" y="46" width="26" height="6" fill="#faff00"/><rect x="61" y="49" width="14" height="6" fill="#ff2e88"/>
    </g>
  </defs>
  <use href="#arms-a" x="0" y="0"/>
  <use href="#arms-b" x="96" y="0"/>
  <use href="#arms-a" x="192" y="0"/>
  <use href="#arms-b" x="288" y="0"/>
</svg>
